
<svg width="96" height="96" viewBox="0 0 96 96" xmlns="http://www.w3.org/2000/svg">
  <defs>
    <linearGradient id="bgGradient" x1="0%" y1="0%" x2="100%" y2="100%">
      <stop offset="0%" style="stop-color:#1890FF;stop-opacity:1" />
      <stop offset="100%" style="stop-color:#096DD9;stop-opacity:1" />
    </linearGradient>
    <linearGradient id="catGradient" x1="0%" y1="0%" x2="100%" y2="100%">
      <stop offset="0%" style="stop-color:#FFFFFF;stop-opacity:1" />
      <stop offset="100%" style="stop-color:#F0F0F0;stop-opacity:1" />
    </linearGradient>
  </defs>
  
  <!-- 背景圆形 -->
  <circle cx="48" cy="48" r="46" fill="url(#bgGradient)" />
  
  <!-- 猫咪头部 -->
  <circle cx="48" cy="52.8" r="26.880000000000003" fill="url(#catGradient)" stroke="#E6F7FF" stroke-width="0.96"/>
  
  <!-- 猫耳朵 -->
  <path d="M 33.599999999999994 30.72 L 40.32 17.28 L 46.08 26.880000000000003 Z" fill="url(#catGradient)" stroke="#E6F7FF" stroke-width="0.48"/>
  <path d="M 49.92 26.880000000000003 L 55.67999999999999 17.28 L 62.400000000000006 30.72 Z" fill="url(#catGradient)" stroke="#E6F7FF" stroke-width="0.48"/>
  
  <!-- 猫耳朵内部 -->
  <path d="M 36.480000000000004 26.880000000000003 L 41.28 21.12 L 44.160000000000004 24.96 Z" fill="#FFB6C1"/>
  <path d="M 51.84 24.96 L 54.72 21.12 L 59.519999999999996 26.880000000000003 Z" fill="#FFB6C1"/>
  
  <!-- 猫眼睛 -->
  <ellipse cx="40.32" cy="43.2" rx="3.84" ry="5.76" fill="#333333"/>
  <ellipse cx="55.67999999999999" cy="43.2" rx="3.84" ry="5.76" fill="#333333"/>
  
  <!-- 眼睛高光 -->
  <ellipse cx="41.28" cy="41.28" rx="1.44" ry="1.92" fill="#FFFFFF"/>
  <ellipse cx="56.64" cy="41.28" rx="1.44" ry="1.92" fill="#FFFFFF"/>
  
  <!-- 猫鼻子 -->
  <path d="M 48 49.92 L 46.08 52.800000000000004 L 49.92 52.800000000000004 Z" fill="#FF69B4"/>
  
  <!-- 猫嘴巴 -->
  <path d="M 48 52.800000000000004 Q 44.160000000000004 55.67999999999999 42.24 53.760000000000005" stroke="#333333" stroke-width="0.768" fill="none" stroke-linecap="round"/>
  <path d="M 48 52.800000000000004 Q 51.84 55.67999999999999 53.760000000000005 53.760000000000005" stroke="#333333" stroke-width="0.768" fill="none" stroke-linecap="round"/>
  
  <!-- 猫胡须 -->
  <line x1="30.72" y1="46.08" x2="36.480000000000004" y2="45.12" stroke="#333333" stroke-width="0.5760000000000001" stroke-linecap="round"/>
  <line x1="30.72" y1="49.92" x2="36.480000000000004" y2="49.92" stroke="#333333" stroke-width="0.5760000000000001" stroke-linecap="round"/>
  <line x1="59.519999999999996" y1="45.12" x2="65.28" y2="46.08" stroke="#333333" stroke-width="0.5760000000000001" stroke-linecap="round"/>
  <line x1="59.519999999999996" y1="49.92" x2="65.28" y2="49.92" stroke="#333333" stroke-width="0.5760000000000001" stroke-linecap="round"/>
  
  <!-- 文字 "丁丁" (简化版) -->
  <text x="48" y="76.80000000000001" font-family="Arial, sans-serif" font-size="11.52" font-weight="bold" text-anchor="middle" fill="#FFFFFF">丁丁</text>
</svg>
