
<svg width="58" height="58" viewBox="0 0 58 58" xmlns="http://www.w3.org/2000/svg">
  <defs>
    <linearGradient id="bgGradient" x1="0%" y1="0%" x2="100%" y2="100%">
      <stop offset="0%" style="stop-color:#1890FF;stop-opacity:1" />
      <stop offset="100%" style="stop-color:#096DD9;stop-opacity:1" />
    </linearGradient>
    <linearGradient id="catGradient" x1="0%" y1="0%" x2="100%" y2="100%">
      <stop offset="0%" style="stop-color:#FFFFFF;stop-opacity:1" />
      <stop offset="100%" style="stop-color:#F0F0F0;stop-opacity:1" />
    </linearGradient>
  </defs>
  
  <!-- 背景圆形 -->
  <circle cx="29" cy="29" r="27" fill="url(#bgGradient)" />
  
  <!-- 猫咪头部 -->
  <circle cx="29" cy="31.9" r="16.240000000000002" fill="url(#catGradient)" stroke="#E6F7FF" stroke-width="0.58"/>
  
  <!-- 猫耳朵 -->
  <path d="M 20.299999999999997 18.56 L 24.36 10.44 L 27.84 16.240000000000002 Z" fill="url(#catGradient)" stroke="#E6F7FF" stroke-width="0.29"/>
  <path d="M 30.16 16.240000000000002 L 33.64 10.44 L 37.7 18.56 Z" fill="url(#catGradient)" stroke="#E6F7FF" stroke-width="0.29"/>
  
  <!-- 猫耳朵内部 -->
  <path d="M 22.04 16.240000000000002 L 24.94 12.76 L 26.68 15.08 Z" fill="#FFB6C1"/>
  <path d="M 31.32 15.08 L 33.059999999999995 12.76 L 35.96 16.240000000000002 Z" fill="#FFB6C1"/>
  
  <!-- 猫眼睛 -->
  <ellipse cx="24.36" cy="26.1" rx="2.32" ry="3.48" fill="#333333"/>
  <ellipse cx="33.64" cy="26.1" rx="2.32" ry="3.48" fill="#333333"/>
  
  <!-- 眼睛高光 -->
  <ellipse cx="24.94" cy="24.94" rx="0.87" ry="1.16" fill="#FFFFFF"/>
  <ellipse cx="34.22" cy="24.94" rx="0.87" ry="1.16" fill="#FFFFFF"/>
  
  <!-- 猫鼻子 -->
  <path d="M 29 30.16 L 27.84 31.900000000000002 L 30.16 31.900000000000002 Z" fill="#FF69B4"/>
  
  <!-- 猫嘴巴 -->
  <path d="M 29 31.900000000000002 Q 26.68 33.64 25.52 32.480000000000004" stroke="#333333" stroke-width="0.464" fill="none" stroke-linecap="round"/>
  <path d="M 29 31.900000000000002 Q 31.32 33.64 32.480000000000004 32.480000000000004" stroke="#333333" stroke-width="0.464" fill="none" stroke-linecap="round"/>
  
  <!-- 猫胡须 -->
  <line x1="18.56" y1="27.84" x2="22.04" y2="27.259999999999998" stroke="#333333" stroke-width="0.34800000000000003" stroke-linecap="round"/>
  <line x1="18.56" y1="30.16" x2="22.04" y2="30.16" stroke="#333333" stroke-width="0.34800000000000003" stroke-linecap="round"/>
  <line x1="35.96" y1="27.259999999999998" x2="39.440000000000005" y2="27.84" stroke="#333333" stroke-width="0.34800000000000003" stroke-linecap="round"/>
  <line x1="35.96" y1="30.16" x2="39.440000000000005" y2="30.16" stroke="#333333" stroke-width="0.34800000000000003" stroke-linecap="round"/>
  
  <!-- 文字 "丁丁" (简化版) -->
  <text x="29" y="46.400000000000006" font-family="Arial, sans-serif" font-size="6.96" font-weight="bold" text-anchor="middle" fill="#FFFFFF">丁丁</text>
</svg>
