
<svg width="80" height="80" viewBox="0 0 80 80" xmlns="http://www.w3.org/2000/svg">
  <defs>
    <linearGradient id="bgGradient" x1="0%" y1="0%" x2="100%" y2="100%">
      <stop offset="0%" style="stop-color:#1890FF;stop-opacity:1" />
      <stop offset="100%" style="stop-color:#096DD9;stop-opacity:1" />
    </linearGradient>
    <linearGradient id="catGradient" x1="0%" y1="0%" x2="100%" y2="100%">
      <stop offset="0%" style="stop-color:#FFFFFF;stop-opacity:1" />
      <stop offset="100%" style="stop-color:#F0F0F0;stop-opacity:1" />
    </linearGradient>
  </defs>
  
  <!-- 背景圆形 -->
  <circle cx="40" cy="40" r="38" fill="url(#bgGradient)" />
  
  <!-- 猫咪头部 -->
  <circle cx="40" cy="44" r="22.400000000000002" fill="url(#catGradient)" stroke="#E6F7FF" stroke-width="0.8"/>
  
  <!-- 猫耳朵 -->
  <path d="M 28 25.6 L 33.6 14.399999999999999 L 38.4 22.400000000000002 Z" fill="url(#catGradient)" stroke="#E6F7FF" stroke-width="0.4"/>
  <path d="M 41.6 22.400000000000002 L 46.4 14.399999999999999 L 52 25.6 Z" fill="url(#catGradient)" stroke="#E6F7FF" stroke-width="0.4"/>
  
  <!-- 猫耳朵内部 -->
  <path d="M 30.4 22.400000000000002 L 34.4 17.6 L 36.800000000000004 20.8 Z" fill="#FFB6C1"/>
  <path d="M 43.2 20.8 L 45.599999999999994 17.6 L 49.6 22.400000000000002 Z" fill="#FFB6C1"/>
  
  <!-- 猫眼睛 -->
  <ellipse cx="33.6" cy="36" rx="3.2" ry="4.8" fill="#333333"/>
  <ellipse cx="46.4" cy="36" rx="3.2" ry="4.8" fill="#333333"/>
  
  <!-- 眼睛高光 -->
  <ellipse cx="34.4" cy="34.4" rx="1.2" ry="1.6" fill="#FFFFFF"/>
  <ellipse cx="47.199999999999996" cy="34.4" rx="1.2" ry="1.6" fill="#FFFFFF"/>
  
  <!-- 猫鼻子 -->
  <path d="M 40 41.6 L 38.4 44 L 41.6 44 Z" fill="#FF69B4"/>
  
  <!-- 猫嘴巴 -->
  <path d="M 40 44 Q 36.800000000000004 46.4 35.2 44.800000000000004" stroke="#333333" stroke-width="0.64" fill="none" stroke-linecap="round"/>
  <path d="M 40 44 Q 43.2 46.4 44.800000000000004 44.800000000000004" stroke="#333333" stroke-width="0.64" fill="none" stroke-linecap="round"/>
  
  <!-- 猫胡须 -->
  <line x1="25.6" y1="38.4" x2="30.4" y2="37.599999999999994" stroke="#333333" stroke-width="0.48" stroke-linecap="round"/>
  <line x1="25.6" y1="41.6" x2="30.4" y2="41.6" stroke="#333333" stroke-width="0.48" stroke-linecap="round"/>
  <line x1="49.6" y1="37.599999999999994" x2="54.400000000000006" y2="38.4" stroke="#333333" stroke-width="0.48" stroke-linecap="round"/>
  <line x1="49.6" y1="41.6" x2="54.400000000000006" y2="41.6" stroke="#333333" stroke-width="0.48" stroke-linecap="round"/>
  
  <!-- 文字 "丁丁" (简化版) -->
  <text x="40" y="64" font-family="Arial, sans-serif" font-size="9.6" font-weight="bold" text-anchor="middle" fill="#FFFFFF">丁丁</text>
</svg>
